<?xml version="1.0" standalone="no"?>
<!DOCTYPE svg PUBLIC "-//W3C//DTD SVG 20010904//EN"
 "http://www.w3.org/TR/2001/REC-SVG-20010904/DTD/svg10.dtd">
<svg version="1.0" xmlns="http://www.w3.org/2000/svg"
 width="512.000000pt" height="512.000000pt" viewBox="0 0 512.000000 512.000000"
 preserveAspectRatio="xMidYMid meet">
<metadata>
Created by potrace 1.11, written by Peter Selinger 2001-2013
</metadata>
<g transform="translate(0.000000,512.000000) scale(0.100000,-0.100000)"
fill="#000000" stroke="none">
<path d="M574 3809 c-71 -7 -111 -28 -144 -77 l-25 -36 -1 -1115 c0 -614 2
-1130 6 -1148 10 -44 47 -88 92 -108 34 -16 99 -17 771 -17 754 0 756 0 794
38 13 13 16 23 119 387 74 263 122 367 201 437 56 49 119 69 206 65 121 -5
204 -71 271 -217 30 -66 100 -269 110 -323 2 -11 19 -74 36 -140 18 -66 37
-136 42 -157 6 -20 23 -49 39 -64 l29 -27 724 0 c508 1 734 4 758 12 47 15 94
68 106 116 8 32 11 2149 4 2252 -3 33 -67 100 -110 114 -27 9 -502 12 -2002
13 -1081 1 -1992 -2 -2026 -5z m1168 -827 c370 -131 404 -648 54 -821 -79 -39
-131 -50 -219 -46 -148 5 -280 82 -362 209 -19 30 -35 61 -35 69 0 7 -3 17 -7
21 -22 22 -27 217 -7 275 18 54 52 121 70 138 7 8 19 22 26 32 19 26 108 92
148 109 104 44 231 50 332 14z m1928 0 c117 -41 202 -117 258 -230 36 -73 37
-80 37 -181 0 -112 -2 -124 -28 -185 -9 -21 -17 -41 -17 -45 0 -8 -49 -65 -97
-113 -46 -47 -144 -95 -220 -109 -143 -27 -298 25 -403 133 -44 46 -105 160
-116 218 -20 108 7 246 66 333 66 99 186 180 284 194 22 3 43 7 46 10 11 10
138 -6 190 -25z"/>
</g>
</svg>
